<svg xmlns="http://www.w3.org/2000/svg" width="256" height="256" viewBox="0 0 256 256" role="img" aria-labelledby="title desc">
  <title id="title">SicarioSpec risk cut shield concept</title>
  <desc id="desc">An abstract shield with a clean cutting edge and evidence-chain nodes.</desc>
  <rect width="256" height="256" rx="40" fill="#080b12"/>
  <path d="M128 27l70 26v55c0 53-25 91-70 118-45-27-70-65-70-118V53l70-26z" fill="#d6aa4c"/>
  <path d="M128 45l53 20v45c0 41-18 70-53 92-35-22-53-51-53-92V65l53-20z" fill="#101827"/>
  <path d="M76 91c31 5 54 18 72 40 16 20 35 31 58 34" fill="none" stroke="#24d3c1" stroke-width="8" stroke-linecap="round"/>
  <circle cx="76" cy="91" r="9" fill="#24d3c1"/>
  <circle cx="148" cy="131" r="9" fill="#d6aa4c"/>
  <circle cx="206" cy="165" r="9" fill="#24d3c1"/>
  <path d="M74 170c43-37 81-74 113-111" fill="none" stroke="#f8fafc" stroke-width="19" stroke-linecap="round"/>
  <path d="M86 173c37-28 73-64 108-108" fill="none" stroke="#d6aa4c" stroke-width="7" stroke-linecap="round"/>
  <path d="M88 120h34m-49 25h31m55 20h27" stroke="#64748b" stroke-width="7" stroke-linecap="round" opacity=".86"/>
</svg>
